<svg id="Group_25" data-name="Group 25" xmlns="http://www.w3.org/2000/svg" xmlns:xlink="http://www.w3.org/1999/xlink" width="199" height="49" viewBox="0 0 199 49">
  <defs>
    <clipPath id="clip-path">
      <path id="Clip_2" data-name="Clip 2" d="M0,0H52V49H0Z" fill="none"/>
    </clipPath>
  </defs>
  <g id="Group_3" data-name="Group 3">
    <path id="Clip_2-2" data-name="Clip 2" d="M0,0H52V49H0Z" fill="none"/>
    <g id="Group_3-2" data-name="Group 3" clip-path="url(#clip-path)">
      <path id="Fill_1" data-name="Fill 1" d="M48.9,12.419,49.689,14A22.079,22.079,0,0,1,39.418,43.724l-6.2,2.994A22.638,22.638,0,0,1,3.1,36.582L2.312,35A22.078,22.078,0,0,1,12.582,5.276l6.2-2.994A22.637,22.637,0,0,1,48.9,12.419" transform="translate(0 0)" fill="#fa5750"/>
      <path id="Fill_21" data-name="Fill 21" d="M18.749,19.168a3.061,3.061,0,0,0-1.775-1.547,3.11,3.11,0,0,0-2.363.144L8.863,20.537v1.59l6.383-3.078a1.655,1.655,0,0,1,1.257-.076,1.617,1.617,0,0,1,.187,3l-9.731,4.7L6.969,5.448A5.49,5.49,0,0,0,1.448,0,5.558,5.558,0,0,0,0,.193,6.03,6.03,0,0,1,4.214,2.3,4.565,4.565,0,0,1,5.52,5.447L5.511,27.819a.712.712,0,0,0,.341.607.731.731,0,0,0,.7.036l10.774-5.208a3.039,3.039,0,0,0,1.421-4.085" transform="translate(19.512 7.478)" fill="#fff"/>
      <path id="Fill_23" data-name="Fill 23" d="M25.618,18.375a5.319,5.319,0,0,0-.734-1.108,6.938,6.938,0,0,1-.126,4.5c-1.014,1.918-1.862,2.288-2.268,2.483L12.012,29.31h0a4,4,0,0,1-3.868-.19l-.08-.051a3.907,3.907,0,0,1-1.779-3.506c0-1.425,0-22.461,0-22.461A3.121,3.121,0,0,0,3.409.014C3.322.007,3.233,0,3.143,0A3.143,3.143,0,0,0,.163,2.124,3.038,3.038,0,0,0,0,3.1V22.785a5.456,5.456,0,0,0,2.431,4.7l.109.069a5.539,5.539,0,0,0,.624.328,7.617,7.617,0,0,1-.225-1.8,4.052,4.052,0,0,1-1.49-3.3V3.329a3.97,3.97,0,0,1,.107-.807A1.7,1.7,0,0,1,4.838,3.1s0,21.036,0,22.461a5.318,5.318,0,0,0,2.431,4.7l.109.069a5.447,5.447,0,0,0,5.272.263h0l10.479-5.061a5.326,5.326,0,0,0,2.491-7.158" transform="translate(15.444 9.474)" fill="#fff"/>
    </g>
  </g>
  <g id="Group_2" data-name="Group 2" transform="translate(63 13)">
    <path id="Fill_4" data-name="Fill 4" d="M0,20.241V0H3.273V17.2h7.373v3.04Z" transform="translate(0 0)" fill="#333"/>
    <path id="Fill_6" data-name="Fill 6" d="M7.661,15.116A7.443,7.443,0,0,1,0,7.558,7.443,7.443,0,0,1,7.661,0a7.443,7.443,0,0,1,7.66,7.558A7.443,7.443,0,0,1,7.661,15.116Zm0-12.257a4.571,4.571,0,0,0-4.538,4.7,4.541,4.541,0,1,0,9.076,0A4.571,4.571,0,0,0,7.661,2.859Z" transform="translate(12.649 5.485)" fill="#333"/>
    <path id="Fill_8" data-name="Fill 8" d="M5.443,14.756C2.085,14.756,0,12.435,0,8.7V0H3.153V8.039c0,2.4,1.248,3.827,3.339,3.827,2.174,0,3.579-1.679,3.579-4.278V0h3.153V14.4H10.07V12.059l-.3.457a4.971,4.971,0,0,1-4.33,2.24" transform="translate(30.919 5.845)" fill="#333"/>
    <path id="Fill_10" data-name="Fill 10" d="M10.191,14.756V6.717c0-2.4-1.282-3.827-3.429-3.827-2.192,0-3.609,1.679-3.609,4.278v7.588H0V.36H3.153V2.7l.3-.458A5,5,0,0,1,7.81,0c3.464,0,5.533,2.264,5.533,6.056v8.7Z" transform="translate(48.32 5.485)" fill="#333"/>
    <path id="Fill_12" data-name="Fill 12" d="M7.451,21.515A7.482,7.482,0,0,1,.562,17.86l2.486-1.571a4.983,4.983,0,0,0,4.4,2.517c2.725,0,4.418-1.823,4.418-4.758V11.881l-.294.42a5.756,5.756,0,0,1-4.694,2.3A6.922,6.922,0,0,1,0,7.348,7.05,7.05,0,0,1,6.881,0a5.613,5.613,0,0,1,4.693,2.273l.3.431V.36h3.092V14.017C14.962,18.572,12.014,21.515,7.451,21.515ZM7.6,2.8A4.437,4.437,0,0,0,3.183,7.348a4.42,4.42,0,1,0,8.835,0A4.436,4.436,0,0,0,7.6,2.8Z" transform="translate(64.7 5.485)" fill="#333"/>
    <path id="Fill_14" data-name="Fill 14" d="M7.481,15.116A7.2,7.2,0,0,1,0,7.557,7.269,7.269,0,0,1,7.3,0c4.144,0,7.151,3.178,7.151,7.557,0,.375-.014.676-.022.855l0,.035H3.11l.013.173A4.311,4.311,0,0,0,7.511,12.5a4.243,4.243,0,0,0,3.8-2.178l2.565,1.218A7.084,7.084,0,0,1,7.481,15.116ZM7.241,2.529A4.252,4.252,0,0,0,3.154,6.066l-.023.182h8.216l-.019-.179A3.99,3.99,0,0,0,7.241,2.529Z" transform="translate(82.88 5.485)" fill="#333"/>
    <path id="Fill_16" data-name="Fill 16" d="M8.05,20.6C3.085,20.6,0,17.325,0,12.052V0H3.273V11.9c0,3.469,1.786,5.54,4.777,5.54s4.778-2.071,4.778-5.54V0H16.1V12.052c0,5.273-3.085,8.549-8.051,8.549" transform="translate(101.357)" fill="#333"/>
    <path id="Fill_18" data-name="Fill 18" d="M3.123,21H0V.36H3.123V2.8L3.416,2.4A5.937,5.937,0,0,1,8.26,0c3.991,0,7,3.249,7,7.557,0,4.239-3.075,7.559-7,7.559a5.908,5.908,0,0,1-4.844-2.306L3.123,12.4V21ZM7.541,2.83A4.6,4.6,0,0,0,2.973,7.557a4.57,4.57,0,1,0,9.135,0A4.6,4.6,0,0,0,7.541,2.83Z" transform="translate(120.739 5.485)" fill="#333"/>
  </g>
</svg>
