<svg width="979" height="117" viewBox="0 0 979 117" fill="none" xmlns="http://www.w3.org/2000/svg">
<path d="M43.399 79.05H37.399V104.7L45.199 113.1V114H0.349024V113.1L8.14902 104.7L8.29902 21.45L0.199023 13.65V12.75H39.049C70.099 12.75 88.699 18.45 88.699 43.65C88.699 65.55 72.349 79.05 43.399 79.05ZM40.699 15.45H37.399V76.35H41.449C52.999 76.35 59.449 71.25 59.449 45.3C59.449 21.3 53.449 15.45 40.699 15.45ZM108.146 25.05C100.196 25.05 94.7963 20.1 94.7963 12.75C94.7963 5.54999 100.196 0.749992 108.146 0.749992C115.796 0.749992 120.896 5.54999 120.896 12.75C120.896 20.1 115.796 25.05 108.146 25.05ZM95.0963 107.25L95.2463 41.4L88.3463 35.1V34.2H121.796V41.4L121.496 107.25L128.396 113.1V114H88.0463V113.1L95.0963 107.25ZM196.906 91.95L197.656 92.7C184.906 106.65 174.106 116.25 169.006 116.25C145.006 116.25 126.406 100.65 126.406 75.3C126.406 39.75 159.106 31.95 167.506 31.95C186.406 31.95 195.406 43.8 196.606 58.8C196.606 63 176.656 72.15 170.356 72.15H151.156C156.706 84.75 167.356 96.15 182.806 96.15C187.006 96.15 190.906 95.1 196.906 91.95ZM154.756 38.85C150.406 38.85 146.656 43.2 146.656 52.2C146.656 57.45 147.856 63.45 150.106 69.45H169.756C169.456 52.05 163.006 38.85 154.756 38.85ZM265.028 40.35L265.778 40.8C263.828 45.45 256.628 61.35 248.228 61.35C242.378 61.35 239.228 52.95 234.128 52.95C233.228 52.95 231.428 54.3 230.528 56.55V107.4L237.428 113.1V114H197.078V113.1L204.128 107.25V51.15L192.878 56.7L192.278 55.95C201.428 43.2 207.878 32.25 217.028 32.25C224.078 32.25 229.628 36.45 228.428 53.1H229.628C235.028 45.75 243.878 32.1 246.728 32.1C250.178 32.1 256.478 41.85 261.728 41.85C263.378 41.85 264.128 41.4 265.028 40.35ZM329.487 40.35L330.237 40.8C328.287 45.45 321.087 61.35 312.687 61.35C306.837 61.35 303.687 52.95 298.587 52.95C297.687 52.95 295.887 54.3 294.987 56.55V107.4L301.887 113.1V114H261.537V113.1L268.587 107.25V51.15L257.337 56.7L256.737 55.95C265.887 43.2 272.337 32.25 281.487 32.25C288.537 32.25 294.087 36.45 292.887 53.1H294.087C299.487 45.75 308.337 32.1 311.187 32.1C314.637 32.1 320.937 41.85 326.187 41.85C327.837 41.85 328.587 41.4 329.487 40.35ZM389.697 91.95L390.447 92.7C377.697 106.65 366.897 116.25 361.797 116.25C337.797 116.25 319.197 100.65 319.197 75.3C319.197 39.75 351.897 31.95 360.297 31.95C379.197 31.95 388.197 43.8 389.397 58.8C389.397 63 369.447 72.15 363.147 72.15H343.947C349.497 84.75 360.147 96.15 375.597 96.15C379.797 96.15 383.697 95.1 389.697 91.95ZM347.547 38.85C343.197 38.85 339.447 43.2 339.447 52.2C339.447 57.45 340.647 63.45 342.897 69.45H362.547C362.247 52.05 355.797 38.85 347.547 38.85ZM495.526 12.75V55.35H494.776C491.476 50.4 488.626 46.05 486.226 42.3C472.726 20.55 469.276 15.45 451.726 15.45H450.526V63.3H453.376C461.626 63.3 467.926 60.6 477.826 40.8H478.726V88.65H477.826C467.926 70.2 461.626 66 453.376 66H450.526V104.7L458.326 113.1V114H413.476V113.1L421.276 104.7L421.426 21.45L413.326 13.65V12.75H495.526ZM534.579 116.25C510.729 116.25 495.729 97.65 495.729 75.75C495.729 39 529.029 32.1 534.279 32.1C558.129 32.1 573.279 50.55 573.279 73.05C573.279 109.35 539.979 116.25 534.579 116.25ZM547.929 108.9C552.879 106.8 553.629 96.15 545.229 71.7C536.679 47.25 528.729 37.05 521.379 39.3C515.979 41.25 515.079 51.9 523.329 76.5C531.729 100.95 540.129 111.3 547.929 108.9ZM647.531 97.2L658.631 91.65L659.231 92.4C650.231 105.3 643.781 116.25 634.481 116.25C627.281 116.25 621.731 111.75 623.081 94.5C613.031 108.3 605.231 116.1 600.431 116.1C583.631 116.1 577.631 104.25 577.631 89.85L577.481 41.4L570.581 35.1V34.2H604.031V88.05C604.031 95.55 607.781 97.8 612.281 97.8C616.031 97.8 618.881 95.7 620.981 92.85V41.4L613.931 35.1V34.2H647.531V97.2ZM722.393 40.35L723.143 40.8C721.193 45.45 713.993 61.35 705.593 61.35C699.743 61.35 696.593 52.95 691.493 52.95C690.593 52.95 688.793 54.3 687.893 56.55V107.4L694.793 113.1V114H654.443V113.1L661.493 107.25V51.15L650.243 56.7L649.643 55.95C658.793 43.2 665.243 32.25 674.393 32.25C681.443 32.25 686.993 36.45 685.793 53.1H686.993C692.393 45.75 701.243 32.1 704.093 32.1C707.543 32.1 713.843 41.85 719.093 41.85C720.743 41.85 721.493 41.4 722.393 40.35ZM796.002 58.35L795.702 107.25L802.752 113.1V114H762.402V113.1L769.302 107.25V60.15C769.302 52.65 765.702 50.4 761.202 50.4C757.302 50.4 754.452 52.5 752.352 55.5V107.25L759.252 113.1V114H718.902V113.1L725.952 107.25V51.15L714.702 56.7L714.102 55.95C723.252 43.2 729.702 32.25 738.852 32.25C746.052 32.25 751.602 36.6 750.252 53.7H750.402C760.452 39.9 768.252 32.1 773.052 32.1C789.702 32.1 796.002 43.95 796.002 58.35ZM820.711 25.05C812.761 25.05 807.361 20.1 807.361 12.75C807.361 5.54999 812.761 0.749992 820.711 0.749992C828.361 0.749992 833.461 5.54999 833.461 12.75C833.461 20.1 828.361 25.05 820.711 25.05ZM807.661 107.25L807.811 41.4L800.911 35.1V34.2H834.361V41.4L834.061 107.25L840.961 113.1V114H800.611V113.1L807.661 107.25ZM909.471 91.95L910.221 92.7C897.471 106.65 886.671 116.25 881.571 116.25C857.571 116.25 838.971 100.65 838.971 75.3C838.971 39.75 871.671 31.95 880.071 31.95C898.971 31.95 907.971 43.8 909.171 58.8C909.171 63 889.221 72.15 882.921 72.15H863.721C869.271 84.75 879.921 96.15 895.371 96.15C899.571 96.15 903.471 95.1 909.471 91.95ZM867.321 38.85C862.971 38.85 859.221 43.2 859.221 52.2C859.221 57.45 860.421 63.45 862.671 69.45H882.321C882.021 52.05 875.571 38.85 867.321 38.85ZM977.592 40.35L978.342 40.8C976.392 45.45 969.192 61.35 960.792 61.35C954.942 61.35 951.792 52.95 946.692 52.95C945.792 52.95 943.992 54.3 943.092 56.55V107.4L949.992 113.1V114H909.642V113.1L916.692 107.25V51.15L905.442 56.7L904.842 55.95C913.992 43.2 920.442 32.25 929.592 32.25C936.642 32.25 942.192 36.45 940.992 53.1H942.192C947.592 45.75 956.442 32.1 959.292 32.1C962.742 32.1 969.042 41.85 974.292 41.85C975.942 41.85 976.692 41.4 977.592 40.35Z" fill="#335AB5"/>
</svg>
